M48
METRIC,LZ,000.000
;FILE_FORMAT=3:3
;TYPE=PLATED
;Layer: PTH_Through
;EasyEDA v6.5.22, 2023-02-15 17:28:14
;889346655b5e4dd39cbf71a95156414b,7be1179030e74d40a97a3c751b95adb4,10
;Gerber Generator version 0.2
;Holesize 1 = 0.351 mm
T01C0.351
;Holesize 2 = 0.915 mm
T02C0.915
;Holesize 3 = 1.000 mm
T03C1.000
;Holesize 4 = 1.067 mm
T04C1.067
%
G05
G90
T01
X-037044Y-046264G85X-037044Y-044414
X-028724Y-046264G85X-028724Y-044414
X-038524Y-046264G85X-038524Y-044414
X-024344Y-046391G85X-024344Y-044541
X-016024Y-046391G85X-016024Y-044541
X-025824Y-046391G85X-025824Y-044541
X-011771Y-046137G85X-011771Y-044287
X-003451Y-046137G85X-003451Y-044287
X-013251Y-046137G85X-013251Y-044287
X-037044Y-058837G85X-037044Y-056987
X-028724Y-058837G85X-028724Y-056987
X-038524Y-058837G85X-038524Y-056987
X-024344Y-059091G85X-024344Y-057241
X-016024Y-059091G85X-016024Y-057241
X-025824Y-059091G85X-025824Y-057241
X-011771Y-058837G85X-011771Y-056987
X-003451Y-058837G85X-003451Y-056987
X-013251Y-058837G85X-013251Y-056987
X-037171Y002631G85X-037171Y004481
X-028851Y002631G85X-028851Y004481
X-038651Y002631G85X-038651Y004481
T02
X-016383Y037338
X-018923Y037338
X-021463Y037338
X-024003Y037338
X-007493Y-033782
X-010033Y-033782
X-012573Y-033782
X-015113Y-033782
X-017653Y-033782
T03
X-019177Y-009779G85X-019177Y-009779
X-019177Y-007239G85X-019177Y-007239
X-019177Y-004699G85X-019177Y-004699
X-019177Y-002159G85X-019177Y-002159
X-019177Y000381G85X-019177Y000381
X-019177Y002921G85X-019177Y002921
X-019177Y005461G85X-019177Y005461
X-019177Y008001G85X-019177Y008001
X-019177Y010541G85X-019177Y010541
X-019177Y013081G85X-019177Y013081
X-019177Y015621G85X-019177Y015621
X-019177Y018161G85X-019177Y018161
X-003937Y-009779G85X-003937Y-009779
X-003937Y-007239G85X-003937Y-007239
X-003937Y-004699G85X-003937Y-004699
X-003937Y-002159G85X-003937Y-002159
X-003937Y000381G85X-003937Y000381
X-003937Y002921G85X-003937Y002921
X-003937Y008001G85X-003937Y008001
X-003937Y010541G85X-003937Y010541
X-003937Y015621G85X-003937Y015621
X-003937Y018161G85X-003937Y018161
X-003937Y013081G85X-003937Y013081
X-003937Y005461G85X-003937Y005461
X-019177Y020701G85X-019177Y020701
X-019177Y023241G85X-019177Y023241
X-019177Y025781G85X-019177Y025781
X-003937Y020701G85X-003937Y020701
X-003937Y023241G85X-003937Y023241
X-003937Y025781G85X-003937Y025781
T04
X-034544Y-012700
X-037084Y-012700
X-034544Y-017780
X-037084Y-017780
X-034544Y-020320
X-037084Y-020320
X-034544Y-022860
X-037084Y-022860
X-034544Y-025400
X-037084Y-025400
X-034544Y-010160
X-037084Y-010160
X-034544Y-015240
X-037084Y-015240
X-034544Y-027940
X-037084Y-027940
M30
