G04 Layer: TopSilkscreenLayer*
G04 EasyEDA v6.5.22, 2023-02-15 17:28:14*
G04 889346655b5e4dd39cbf71a95156414b,7be1179030e74d40a97a3c751b95adb4,10*
G04 Gerber Generator version 0.2*
G04 Scale: 100 percent, Rotated: No, Reflected: No *
G04 Dimensions in millimeters *
G04 leading zeros omitted , absolute positions ,4 integer and 5 decimal *
%FSLAX45Y45*%
%MOMM*%

%ADD10C,0.7000*%
%ADD11C,0.1524*%
%ADD12C,0.2032*%
%ADD13C,0.2540*%
%ADD14C,0.1800*%
%ADD15C,0.0196*%

%LPD*%
D10*
X-3403092Y4539995D02*
G01*
X-3439413Y4576571D01*
X-3494023Y4594605D01*
X-3566668Y4594605D01*
X-3621278Y4576571D01*
X-3657600Y4539995D01*
X-3657600Y4503673D01*
X-3639312Y4467352D01*
X-3621278Y4449063D01*
X-3584955Y4431029D01*
X-3475736Y4394707D01*
X-3439413Y4376420D01*
X-3421126Y4358386D01*
X-3403092Y4321810D01*
X-3403092Y4267454D01*
X-3439413Y4230878D01*
X-3494023Y4212844D01*
X-3566668Y4212844D01*
X-3621278Y4230878D01*
X-3657600Y4267454D01*
X-3282950Y4594605D02*
G01*
X-3282950Y4212844D01*
X-3282950Y4594605D02*
G01*
X-3046729Y4594605D01*
X-3282950Y4412742D02*
G01*
X-3137662Y4412742D01*
X-3282950Y4212844D02*
G01*
X-3046729Y4212844D01*
X-2817621Y4594605D02*
G01*
X-2853944Y4576571D01*
X-2890265Y4539995D01*
X-2908554Y4503673D01*
X-2926587Y4449063D01*
X-2926587Y4358386D01*
X-2908554Y4303776D01*
X-2890265Y4267454D01*
X-2853944Y4230878D01*
X-2817621Y4212844D01*
X-2744978Y4212844D01*
X-2708402Y4230878D01*
X-2672079Y4267454D01*
X-2654045Y4303776D01*
X-2635757Y4358386D01*
X-2635757Y4449063D01*
X-2654045Y4503673D01*
X-2672079Y4539995D01*
X-2708402Y4576571D01*
X-2744978Y4594605D01*
X-2817621Y4594605D01*
X-2763012Y4285487D02*
G01*
X-2654045Y4176521D01*
X-2515870Y4594605D02*
G01*
X-2515870Y4321810D01*
X-2497581Y4267454D01*
X-2461260Y4230878D01*
X-2406650Y4212844D01*
X-2370328Y4212844D01*
X-2315718Y4230878D01*
X-2279395Y4267454D01*
X-2261362Y4321810D01*
X-2261362Y4594605D01*
X-2141220Y4594605D02*
G01*
X-2141220Y4212844D01*
X-2141220Y4594605D02*
G01*
X-1905000Y4594605D01*
X-2141220Y4412742D02*
G01*
X-1995678Y4412742D01*
X-2141220Y4212844D02*
G01*
X-1905000Y4212844D01*
X-1784857Y4594605D02*
G01*
X-1784857Y4212844D01*
X-1784857Y4594605D02*
G01*
X-1530350Y4212844D01*
X-1530350Y4594605D02*
G01*
X-1530350Y4212844D01*
X-1137665Y4503673D02*
G01*
X-1155700Y4539995D01*
X-1192276Y4576571D01*
X-1228597Y4594605D01*
X-1301242Y4594605D01*
X-1337563Y4576571D01*
X-1373886Y4539995D01*
X-1392173Y4503673D01*
X-1410207Y4449063D01*
X-1410207Y4358386D01*
X-1392173Y4303776D01*
X-1373886Y4267454D01*
X-1337563Y4230878D01*
X-1301242Y4212844D01*
X-1228597Y4212844D01*
X-1192276Y4230878D01*
X-1155700Y4267454D01*
X-1137665Y4303776D01*
X-1017523Y4594605D02*
G01*
X-1017523Y4212844D01*
X-1017523Y4594605D02*
G01*
X-781304Y4594605D01*
X-1017523Y4412742D02*
G01*
X-872236Y4412742D01*
X-1017523Y4212844D02*
G01*
X-781304Y4212844D01*
X-661162Y4594605D02*
G01*
X-661162Y4212844D01*
X-661162Y4594605D02*
G01*
X-497586Y4594605D01*
X-442976Y4576571D01*
X-424942Y4558284D01*
X-406654Y4521962D01*
X-406654Y4485639D01*
X-424942Y4449063D01*
X-442976Y4431029D01*
X-497586Y4412742D01*
X-661162Y4412742D01*
X-533907Y4412742D02*
G01*
X-406654Y4212844D01*
D11*
X-3327400Y-3931412D02*
G01*
X-3316986Y-3926078D01*
X-3301492Y-3910584D01*
X-3301492Y-4019550D01*
X-2052320Y-3949192D02*
G01*
X-2052320Y-3944112D01*
X-2046986Y-3933697D01*
X-2041905Y-3928363D01*
X-2031492Y-3923284D01*
X-2010663Y-3923284D01*
X-2000250Y-3928363D01*
X-1995170Y-3933697D01*
X-1989836Y-3944112D01*
X-1989836Y-3954526D01*
X-1995170Y-3964939D01*
X-2005329Y-3980434D01*
X-2057400Y-4032250D01*
X-1984755Y-4032250D01*
X-789686Y-3897884D02*
G01*
X-732536Y-3897884D01*
X-763778Y-3939539D01*
X-748029Y-3939539D01*
X-737870Y-3944620D01*
X-732536Y-3949700D01*
X-727455Y-3965447D01*
X-727455Y-3975862D01*
X-732536Y-3991355D01*
X-742950Y-4001770D01*
X-758444Y-4006850D01*
X-774192Y-4006850D01*
X-789686Y-4001770D01*
X-795020Y-3996689D01*
X-800100Y-3986276D01*
X-3275329Y-5167884D02*
G01*
X-3327400Y-5240528D01*
X-3249421Y-5240528D01*
X-3275329Y-5167884D02*
G01*
X-3275329Y-5276850D01*
X-1995170Y-5193284D02*
G01*
X-2046986Y-5193284D01*
X-2052320Y-5240020D01*
X-2046986Y-5234939D01*
X-2031492Y-5229605D01*
X-2015744Y-5229605D01*
X-2000250Y-5234939D01*
X-1989836Y-5245100D01*
X-1984755Y-5260847D01*
X-1984755Y-5271262D01*
X-1989836Y-5286755D01*
X-2000250Y-5297170D01*
X-2015744Y-5302250D01*
X-2031492Y-5302250D01*
X-2046986Y-5297170D01*
X-2052320Y-5292089D01*
X-2057400Y-5281676D01*
X-737870Y-5183378D02*
G01*
X-742950Y-5172963D01*
X-758444Y-5167884D01*
X-768857Y-5167884D01*
X-784605Y-5172963D01*
X-795020Y-5188712D01*
X-800100Y-5214620D01*
X-800100Y-5240528D01*
X-795020Y-5261355D01*
X-784605Y-5271770D01*
X-768857Y-5276850D01*
X-763778Y-5276850D01*
X-748029Y-5271770D01*
X-737870Y-5261355D01*
X-732536Y-5245862D01*
X-732536Y-5240528D01*
X-737870Y-5225034D01*
X-748029Y-5214620D01*
X-763778Y-5209539D01*
X-768857Y-5209539D01*
X-784605Y-5214620D01*
X-795020Y-5225034D01*
X-800100Y-5240528D01*
X-3643121Y1194307D02*
G01*
X-3648455Y1204721D01*
X-3658870Y1215136D01*
X-3669029Y1220215D01*
X-3689857Y1220215D01*
X-3700271Y1215136D01*
X-3710686Y1204721D01*
X-3716020Y1194307D01*
X-3721100Y1178560D01*
X-3721100Y1152652D01*
X-3716020Y1137157D01*
X-3710686Y1126744D01*
X-3700271Y1116329D01*
X-3689857Y1111250D01*
X-3669029Y1111250D01*
X-3658870Y1116329D01*
X-3648455Y1126744D01*
X-3643121Y1137157D01*
X-3608831Y1220215D02*
G01*
X-3608831Y1111250D01*
X-3608831Y1111250D02*
G01*
X-3546602Y1111250D01*
X-3481070Y1220215D02*
G01*
X-3491484Y1215136D01*
X-3501897Y1204721D01*
X-3506978Y1194307D01*
X-3512312Y1178560D01*
X-3512312Y1152652D01*
X-3506978Y1137157D01*
X-3501897Y1126744D01*
X-3491484Y1116329D01*
X-3481070Y1111250D01*
X-3460242Y1111250D01*
X-3449828Y1116329D01*
X-3439413Y1126744D01*
X-3434334Y1137157D01*
X-3429000Y1152652D01*
X-3429000Y1178560D01*
X-3434334Y1194307D01*
X-3439413Y1204721D01*
X-3449828Y1215136D01*
X-3460242Y1220215D01*
X-3481070Y1220215D01*
X-3316986Y1194307D02*
G01*
X-3322065Y1204721D01*
X-3332479Y1215136D01*
X-3342894Y1220215D01*
X-3363721Y1220215D01*
X-3374136Y1215136D01*
X-3384550Y1204721D01*
X-3389629Y1194307D01*
X-3394710Y1178560D01*
X-3394710Y1152652D01*
X-3389629Y1137157D01*
X-3384550Y1126744D01*
X-3374136Y1116329D01*
X-3363721Y1111250D01*
X-3342894Y1111250D01*
X-3332479Y1116329D01*
X-3322065Y1126744D01*
X-3316986Y1137157D01*
X-3282695Y1220215D02*
G01*
X-3282695Y1111250D01*
X-3209797Y1220215D02*
G01*
X-3282695Y1147571D01*
X-3256534Y1173479D02*
G01*
X-3209797Y1111250D01*
X-3175507Y1074673D02*
G01*
X-3082036Y1074673D01*
X-3047745Y1220215D02*
G01*
X-3047745Y1111250D01*
X-3013455Y1220215D02*
G01*
X-3013455Y1111250D01*
X-3013455Y1220215D02*
G01*
X-2940812Y1111250D01*
X-2940812Y1220215D02*
G01*
X-2940812Y1111250D01*
X-1319021Y343407D02*
G01*
X-1324355Y353821D01*
X-1334770Y364236D01*
X-1344929Y369315D01*
X-1365757Y369315D01*
X-1376171Y364236D01*
X-1386586Y353821D01*
X-1391920Y343407D01*
X-1397000Y327660D01*
X-1397000Y301752D01*
X-1391920Y286257D01*
X-1386586Y275844D01*
X-1376171Y265429D01*
X-1365757Y260350D01*
X-1344929Y260350D01*
X-1334770Y265429D01*
X-1324355Y275844D01*
X-1319021Y286257D01*
X-1284731Y348487D02*
G01*
X-1274318Y353821D01*
X-1258823Y369315D01*
X-1258823Y260350D01*
X-1331721Y102107D02*
G01*
X-1337055Y112521D01*
X-1347470Y122936D01*
X-1357629Y128015D01*
X-1378457Y128015D01*
X-1388871Y122936D01*
X-1399286Y112521D01*
X-1404620Y102107D01*
X-1409700Y86360D01*
X-1409700Y60452D01*
X-1404620Y44957D01*
X-1399286Y34544D01*
X-1388871Y24129D01*
X-1378457Y19050D01*
X-1357629Y19050D01*
X-1347470Y24129D01*
X-1337055Y34544D01*
X-1331721Y44957D01*
X-1292352Y102107D02*
G01*
X-1292352Y107187D01*
X-1287018Y117602D01*
X-1281937Y122936D01*
X-1271523Y128015D01*
X-1250695Y128015D01*
X-1240281Y122936D01*
X-1235202Y117602D01*
X-1229868Y107187D01*
X-1229868Y96773D01*
X-1235202Y86360D01*
X-1245615Y70865D01*
X-1297431Y19050D01*
X-1224787Y19050D01*
X-1409700Y864615D02*
G01*
X-1409700Y755650D01*
X-1409700Y864615D02*
G01*
X-1362963Y864615D01*
X-1347470Y859536D01*
X-1342136Y854202D01*
X-1337055Y843787D01*
X-1337055Y833373D01*
X-1342136Y822960D01*
X-1347470Y817879D01*
X-1362963Y812800D01*
X-1409700Y812800D01*
X-1373378Y812800D02*
G01*
X-1337055Y755650D01*
X-1302765Y843787D02*
G01*
X-1292352Y849121D01*
X-1276604Y864615D01*
X-1276604Y755650D01*
X-1409700Y1144015D02*
G01*
X-1409700Y1035050D01*
X-1409700Y1144015D02*
G01*
X-1362963Y1144015D01*
X-1347470Y1138936D01*
X-1342136Y1133602D01*
X-1337055Y1123187D01*
X-1337055Y1112773D01*
X-1342136Y1102360D01*
X-1347470Y1097279D01*
X-1362963Y1092200D01*
X-1409700Y1092200D01*
X-1373378Y1092200D02*
G01*
X-1337055Y1035050D01*
X-1297431Y1118107D02*
G01*
X-1297431Y1123187D01*
X-1292352Y1133602D01*
X-1287018Y1138936D01*
X-1276604Y1144015D01*
X-1256029Y1144015D01*
X-1245615Y1138936D01*
X-1240281Y1133602D01*
X-1235202Y1123187D01*
X-1235202Y1112773D01*
X-1240281Y1102360D01*
X-1250695Y1086865D01*
X-1302765Y1035050D01*
X-1229868Y1035050D01*
X-1409700Y1372615D02*
G01*
X-1409700Y1263650D01*
X-1409700Y1372615D02*
G01*
X-1362963Y1372615D01*
X-1347470Y1367536D01*
X-1342136Y1362202D01*
X-1337055Y1351787D01*
X-1337055Y1341373D01*
X-1342136Y1330960D01*
X-1347470Y1325879D01*
X-1362963Y1320800D01*
X-1409700Y1320800D01*
X-1373378Y1320800D02*
G01*
X-1337055Y1263650D01*
X-1292352Y1372615D02*
G01*
X-1235202Y1372615D01*
X-1266189Y1330960D01*
X-1250695Y1330960D01*
X-1240281Y1325879D01*
X-1235202Y1320800D01*
X-1229868Y1305052D01*
X-1229868Y1294637D01*
X-1235202Y1279144D01*
X-1245615Y1268729D01*
X-1261110Y1263650D01*
X-1276604Y1263650D01*
X-1292352Y1268729D01*
X-1297431Y1273810D01*
X-1302765Y1284223D01*
X-1409700Y1626615D02*
G01*
X-1409700Y1517650D01*
X-1409700Y1626615D02*
G01*
X-1362963Y1626615D01*
X-1347470Y1621536D01*
X-1342136Y1616202D01*
X-1337055Y1605787D01*
X-1337055Y1595373D01*
X-1342136Y1584960D01*
X-1347470Y1579879D01*
X-1362963Y1574800D01*
X-1409700Y1574800D01*
X-1373378Y1574800D02*
G01*
X-1337055Y1517650D01*
X-1250695Y1626615D02*
G01*
X-1302765Y1553971D01*
X-1224787Y1553971D01*
X-1250695Y1626615D02*
G01*
X-1250695Y1517650D01*
X-1397000Y1867915D02*
G01*
X-1397000Y1758950D01*
X-1397000Y1867915D02*
G01*
X-1350263Y1867915D01*
X-1334770Y1862836D01*
X-1329436Y1857502D01*
X-1324355Y1847087D01*
X-1324355Y1836673D01*
X-1329436Y1826260D01*
X-1334770Y1821179D01*
X-1350263Y1816100D01*
X-1397000Y1816100D01*
X-1360678Y1816100D02*
G01*
X-1324355Y1758950D01*
X-1227581Y1867915D02*
G01*
X-1279652Y1867915D01*
X-1284731Y1821179D01*
X-1279652Y1826260D01*
X-1263904Y1831594D01*
X-1248410Y1831594D01*
X-1232915Y1826260D01*
X-1222502Y1816100D01*
X-1217168Y1800352D01*
X-1217168Y1789937D01*
X-1222502Y1774444D01*
X-1232915Y1764029D01*
X-1248410Y1758950D01*
X-1263904Y1758950D01*
X-1279652Y1764029D01*
X-1284731Y1769110D01*
X-1290065Y1779523D01*
X-1384300Y2121915D02*
G01*
X-1384300Y2012950D01*
X-1384300Y2121915D02*
G01*
X-1337563Y2121915D01*
X-1322070Y2116836D01*
X-1316736Y2111502D01*
X-1311655Y2101087D01*
X-1311655Y2090673D01*
X-1316736Y2080260D01*
X-1322070Y2075179D01*
X-1337563Y2070100D01*
X-1384300Y2070100D01*
X-1347978Y2070100D02*
G01*
X-1311655Y2012950D01*
X-1214881Y2106421D02*
G01*
X-1220215Y2116836D01*
X-1235710Y2121915D01*
X-1246123Y2121915D01*
X-1261618Y2116836D01*
X-1272031Y2101087D01*
X-1277365Y2075179D01*
X-1277365Y2049271D01*
X-1272031Y2028444D01*
X-1261618Y2018029D01*
X-1246123Y2012950D01*
X-1240789Y2012950D01*
X-1225295Y2018029D01*
X-1214881Y2028444D01*
X-1209802Y2043937D01*
X-1209802Y2049271D01*
X-1214881Y2064765D01*
X-1225295Y2075179D01*
X-1240789Y2080260D01*
X-1246123Y2080260D01*
X-1261618Y2075179D01*
X-1272031Y2064765D01*
X-1277365Y2049271D01*
X-3048000Y-354584D02*
G01*
X-3048000Y-463550D01*
X-3048000Y-354584D02*
G01*
X-3001263Y-354584D01*
X-2985770Y-359663D01*
X-2980436Y-364997D01*
X-2975355Y-375412D01*
X-2975355Y-385826D01*
X-2980436Y-396239D01*
X-2985770Y-401320D01*
X-3001263Y-406400D01*
X-3048000Y-406400D01*
X-3011678Y-406400D02*
G01*
X-2975355Y-463550D01*
X-2868168Y-354584D02*
G01*
X-2920237Y-463550D01*
X-2941065Y-354584D02*
G01*
X-2868168Y-354584D01*
X-3771900Y-354584D02*
G01*
X-3771900Y-463550D01*
X-3771900Y-354584D02*
G01*
X-3725163Y-354584D01*
X-3709670Y-359663D01*
X-3704336Y-364997D01*
X-3699255Y-375412D01*
X-3699255Y-385826D01*
X-3704336Y-396239D01*
X-3709670Y-401320D01*
X-3725163Y-406400D01*
X-3771900Y-406400D01*
X-3735578Y-406400D02*
G01*
X-3699255Y-463550D01*
X-3638804Y-354584D02*
G01*
X-3654552Y-359663D01*
X-3659631Y-370078D01*
X-3659631Y-380492D01*
X-3654552Y-390905D01*
X-3644137Y-396239D01*
X-3623310Y-401320D01*
X-3607815Y-406400D01*
X-3597402Y-416813D01*
X-3592068Y-427228D01*
X-3592068Y-442976D01*
X-3597402Y-453389D01*
X-3602481Y-458470D01*
X-3618229Y-463550D01*
X-3638804Y-463550D01*
X-3654552Y-458470D01*
X-3659631Y-453389D01*
X-3664965Y-442976D01*
X-3664965Y-427228D01*
X-3659631Y-416813D01*
X-3649218Y-406400D01*
X-3633723Y-401320D01*
X-3612895Y-396239D01*
X-3602481Y-390905D01*
X-3597402Y-380492D01*
X-3597402Y-370078D01*
X-3602481Y-359663D01*
X-3618229Y-354584D01*
X-3638804Y-354584D01*
X-1003300Y1067815D02*
G01*
X-1003300Y958850D01*
X-1003300Y1067815D02*
G01*
X-956563Y1067815D01*
X-941070Y1062736D01*
X-935736Y1057402D01*
X-930655Y1046987D01*
X-930655Y1036573D01*
X-935736Y1026160D01*
X-941070Y1021079D01*
X-956563Y1016000D01*
X-1003300Y1016000D01*
X-966978Y1016000D02*
G01*
X-930655Y958850D01*
X-828802Y1031494D02*
G01*
X-833881Y1016000D01*
X-844295Y1005586D01*
X-859789Y1000252D01*
X-865123Y1000252D01*
X-880618Y1005586D01*
X-891031Y1016000D01*
X-896365Y1031494D01*
X-896365Y1036573D01*
X-891031Y1052321D01*
X-880618Y1062736D01*
X-865123Y1067815D01*
X-859789Y1067815D01*
X-844295Y1062736D01*
X-833881Y1052321D01*
X-828802Y1031494D01*
X-828802Y1005586D01*
X-833881Y979423D01*
X-844295Y963929D01*
X-859789Y958850D01*
X-870204Y958850D01*
X-885952Y963929D01*
X-891031Y974344D01*
X-1016000Y115315D02*
G01*
X-1016000Y6350D01*
X-1016000Y115315D02*
G01*
X-969263Y115315D01*
X-953770Y110236D01*
X-948436Y104902D01*
X-943355Y94487D01*
X-943355Y84073D01*
X-948436Y73660D01*
X-953770Y68579D01*
X-969263Y63500D01*
X-1016000Y63500D01*
X-979678Y63500D02*
G01*
X-943355Y6350D01*
X-909065Y94487D02*
G01*
X-898652Y99821D01*
X-882904Y115315D01*
X-882904Y6350D01*
X-817626Y115315D02*
G01*
X-833120Y110236D01*
X-843534Y94487D01*
X-848613Y68579D01*
X-848613Y53086D01*
X-843534Y26923D01*
X-833120Y11429D01*
X-817626Y6350D01*
X-807212Y6350D01*
X-791463Y11429D01*
X-781050Y26923D01*
X-775970Y53086D01*
X-775970Y68579D01*
X-781050Y94487D01*
X-791463Y110236D01*
X-807212Y115315D01*
X-817626Y115315D01*
X-1395984Y3733800D02*
G01*
X-1473962Y3733800D01*
X-1489455Y3728720D01*
X-1499870Y3718305D01*
X-1504950Y3702557D01*
X-1504950Y3692144D01*
X-1499870Y3676650D01*
X-1489455Y3666236D01*
X-1473962Y3661155D01*
X-1395984Y3661155D01*
X-1421892Y3621531D02*
G01*
X-1416812Y3621531D01*
X-1406397Y3616452D01*
X-1401063Y3611118D01*
X-1395984Y3600704D01*
X-1395984Y3580129D01*
X-1401063Y3569715D01*
X-1406397Y3564381D01*
X-1416812Y3559302D01*
X-1427226Y3559302D01*
X-1437639Y3564381D01*
X-1453134Y3574795D01*
X-1504950Y3626865D01*
X-1504950Y3553968D01*
D12*
X-1804382Y-482508D02*
G01*
X-1947638Y-537118D01*
X-1804382Y-591728D02*
G01*
X-1947638Y-537118D01*
X-1804382Y-636686D02*
G01*
X-1947638Y-636686D01*
X-1804382Y-636686D02*
G01*
X-1804382Y-684438D01*
X-1811240Y-705012D01*
X-1824956Y-718474D01*
X-1838418Y-725332D01*
X-1858992Y-732190D01*
X-1893028Y-732190D01*
X-1913602Y-725332D01*
X-1927064Y-718474D01*
X-1940780Y-705012D01*
X-1947638Y-684438D01*
X-1947638Y-636686D01*
X-1804382Y-777148D02*
G01*
X-1947638Y-777148D01*
X-1804382Y-777148D02*
G01*
X-1804382Y-824900D01*
X-1811240Y-845220D01*
X-1824956Y-858936D01*
X-1838418Y-865794D01*
X-1858992Y-872652D01*
X-1893028Y-872652D01*
X-1913602Y-865794D01*
X-1927064Y-858936D01*
X-1940780Y-845220D01*
X-1947638Y-824900D01*
X-1947638Y-777148D01*
X-958298Y-2920893D02*
G01*
X-1072852Y-2920893D01*
X-958298Y-2997347D02*
G01*
X-1034752Y-2920893D01*
X-1007574Y-2948325D02*
G01*
X-1072852Y-2997347D01*
X-958298Y-3033415D02*
G01*
X-1072852Y-3033415D01*
X-958298Y-3033415D02*
G01*
X-958298Y-3104281D01*
X-1012908Y-3033415D02*
G01*
X-1012908Y-3077103D01*
X-1072852Y-3033415D02*
G01*
X-1072852Y-3104281D01*
X-958298Y-3140349D02*
G01*
X-1012908Y-3183783D01*
X-1072852Y-3183783D01*
X-958298Y-3227471D02*
G01*
X-1012908Y-3183783D01*
X-1215351Y-3105304D02*
G01*
X-1201635Y-3091842D01*
X-1194777Y-3071268D01*
X-1194777Y-3044090D01*
X-1201635Y-3023516D01*
X-1215351Y-3009800D01*
X-1228813Y-3009800D01*
X-1242529Y-3016658D01*
X-1249387Y-3023516D01*
X-1256245Y-3037232D01*
X-1269961Y-3078126D01*
X-1276565Y-3091842D01*
X-1283423Y-3098446D01*
X-1297139Y-3105304D01*
X-1317459Y-3105304D01*
X-1331175Y-3091842D01*
X-1338033Y-3071268D01*
X-1338033Y-3044090D01*
X-1331175Y-3023516D01*
X-1317459Y-3009800D01*
X-1228813Y-3157120D02*
G01*
X-1222209Y-3157120D01*
X-1208493Y-3163978D01*
X-1201635Y-3170836D01*
X-1194777Y-3184552D01*
X-1194777Y-3211730D01*
X-1201635Y-3225446D01*
X-1208493Y-3232304D01*
X-1222209Y-3238908D01*
X-1235671Y-3238908D01*
X-1249387Y-3232304D01*
X-1269961Y-3218588D01*
X-1338033Y-3150262D01*
X-1338033Y-3245766D01*
X-1456651Y-3168804D02*
G01*
X-1442935Y-3155342D01*
X-1436077Y-3134768D01*
X-1436077Y-3107590D01*
X-1442935Y-3087016D01*
X-1456651Y-3073300D01*
X-1470113Y-3073300D01*
X-1483829Y-3080158D01*
X-1490687Y-3087016D01*
X-1497545Y-3100732D01*
X-1511261Y-3141626D01*
X-1517865Y-3155342D01*
X-1524723Y-3161946D01*
X-1538439Y-3168804D01*
X-1558759Y-3168804D01*
X-1572475Y-3155342D01*
X-1579333Y-3134768D01*
X-1579333Y-3107590D01*
X-1572475Y-3087016D01*
X-1558759Y-3073300D01*
X-1463509Y-3213762D02*
G01*
X-1456651Y-3227478D01*
X-1436077Y-3248052D01*
X-1579333Y-3248052D01*
X-1724113Y-2959762D02*
G01*
X-1710651Y-2952904D01*
X-1696935Y-2939442D01*
X-1690077Y-2925726D01*
X-1690077Y-2898294D01*
X-1696935Y-2884832D01*
X-1710651Y-2871116D01*
X-1724113Y-2864258D01*
X-1744687Y-2857400D01*
X-1778723Y-2857400D01*
X-1799297Y-2864258D01*
X-1812759Y-2871116D01*
X-1826475Y-2884832D01*
X-1833333Y-2898294D01*
X-1833333Y-2925726D01*
X-1826475Y-2939442D01*
X-1812759Y-2952904D01*
X-1799297Y-2959762D01*
X-1778723Y-2959762D01*
X-1778723Y-2925726D02*
G01*
X-1778723Y-2959762D01*
X-1690077Y-3004720D02*
G01*
X-1833333Y-3004720D01*
X-1690077Y-3004720D02*
G01*
X-1833333Y-3100224D01*
X-1690077Y-3100224D02*
G01*
X-1833333Y-3100224D01*
X-1690077Y-3145182D02*
G01*
X-1833333Y-3145182D01*
X-1690077Y-3145182D02*
G01*
X-1690077Y-3192934D01*
X-1696935Y-3213508D01*
X-1710651Y-3226970D01*
X-1724113Y-3233828D01*
X-1744687Y-3240686D01*
X-1778723Y-3240686D01*
X-1799297Y-3233828D01*
X-1812759Y-3226970D01*
X-1826475Y-3213508D01*
X-1833333Y-3192934D01*
X-1833333Y-3145182D01*
D11*
X-2159000Y-2361184D02*
G01*
X-2159000Y-2439162D01*
X-2153920Y-2454655D01*
X-2143505Y-2465070D01*
X-2127757Y-2470150D01*
X-2117344Y-2470150D01*
X-2101850Y-2465070D01*
X-2091436Y-2454655D01*
X-2086355Y-2439162D01*
X-2086355Y-2361184D01*
X-2041652Y-2361184D02*
G01*
X-1984502Y-2361184D01*
X-2015489Y-2402839D01*
X-1999995Y-2402839D01*
X-1989581Y-2407920D01*
X-1984502Y-2413000D01*
X-1979168Y-2428747D01*
X-1979168Y-2439162D01*
X-1984502Y-2454655D01*
X-1994915Y-2465070D01*
X-2010410Y-2470150D01*
X-2025904Y-2470150D01*
X-2041652Y-2465070D01*
X-2046731Y-2459989D01*
X-2052065Y-2449576D01*
D13*
X-3270250Y3892550D02*
G01*
X-793750Y3892550D01*
X-793750Y1212850D01*
X-3270250Y1212850D01*
X-3270250Y3892550D01*
D14*
X-3782390Y-4083913D02*
G01*
X-2782392Y-4083913D01*
X-2782392Y-4983911D01*
X-3782390Y-4983911D01*
X-3782390Y-4083913D01*
X-2512390Y-4096613D02*
G01*
X-1512392Y-4096613D01*
X-1512392Y-4996611D01*
X-2512390Y-4996611D01*
X-2512390Y-4096613D01*
X-1255090Y-4071213D02*
G01*
X-255092Y-4071213D01*
X-255092Y-4971211D01*
X-1255090Y-4971211D01*
X-1255090Y-4071213D01*
X-3782390Y-5341213D02*
G01*
X-2782392Y-5341213D01*
X-2782392Y-6241211D01*
X-3782390Y-6241211D01*
X-3782390Y-5341213D01*
X-2512390Y-5366613D02*
G01*
X-1512392Y-5366613D01*
X-1512392Y-6266611D01*
X-2512390Y-6266611D01*
X-2512390Y-5366613D01*
X-1255090Y-5341213D02*
G01*
X-255092Y-5341213D01*
X-255092Y-6241211D01*
X-1255090Y-6241211D01*
X-1255090Y-5341213D01*
X-3795090Y805586D02*
G01*
X-2795092Y805586D01*
X-2795092Y-94411D01*
X-3795090Y-94411D01*
X-3795090Y805586D01*
D13*
X-1461198Y344777D02*
G01*
X-1461198Y264774D01*
X-1572173Y375762D02*
G01*
X-1492176Y375762D01*
X-1572173Y233796D02*
G01*
X-1492176Y233796D01*
X-1629763Y376344D02*
G01*
X-1709762Y376344D01*
X-1740745Y345361D02*
G01*
X-1740745Y265363D01*
X-1629763Y234383D02*
G01*
X-1709762Y234383D01*
X-1461198Y90777D02*
G01*
X-1461198Y10774D01*
X-1572173Y121762D02*
G01*
X-1492176Y121762D01*
X-1572173Y-20203D02*
G01*
X-1492176Y-20203D01*
X-1629763Y122344D02*
G01*
X-1709762Y122344D01*
X-1740745Y91361D02*
G01*
X-1740745Y11363D01*
X-1629763Y-19616D02*
G01*
X-1709762Y-19616D01*
D11*
X-1557578Y746739D02*
G01*
X-1461691Y746739D01*
X-1461691Y878860D01*
X-1557578Y878860D01*
X-1642821Y746739D02*
G01*
X-1738708Y746739D01*
X-1738708Y878860D01*
X-1642821Y878860D01*
X-1557578Y1000739D02*
G01*
X-1461691Y1000739D01*
X-1461691Y1132860D01*
X-1557578Y1132860D01*
X-1642821Y1000739D02*
G01*
X-1738708Y1000739D01*
X-1738708Y1132860D01*
X-1642821Y1132860D01*
X-1557578Y1254739D02*
G01*
X-1461691Y1254739D01*
X-1461691Y1386860D01*
X-1557578Y1386860D01*
X-1642821Y1254739D02*
G01*
X-1738708Y1254739D01*
X-1738708Y1386860D01*
X-1642821Y1386860D01*
X-1544878Y1508739D02*
G01*
X-1448991Y1508739D01*
X-1448991Y1640860D01*
X-1544878Y1640860D01*
X-1630121Y1508739D02*
G01*
X-1726008Y1508739D01*
X-1726008Y1640860D01*
X-1630121Y1640860D01*
X-1544878Y1762739D02*
G01*
X-1448991Y1762739D01*
X-1448991Y1894860D01*
X-1544878Y1894860D01*
X-1630121Y1762739D02*
G01*
X-1726008Y1762739D01*
X-1726008Y1894860D01*
X-1630121Y1894860D01*
X-1532178Y2016739D02*
G01*
X-1436291Y2016739D01*
X-1436291Y2148860D01*
X-1532178Y2148860D01*
X-1617421Y2016739D02*
G01*
X-1713308Y2016739D01*
X-1713308Y2148860D01*
X-1617421Y2148860D01*
X-3001721Y-518139D02*
G01*
X-3097608Y-518139D01*
X-3097608Y-650260D01*
X-3001721Y-650260D01*
X-2916478Y-518139D02*
G01*
X-2820591Y-518139D01*
X-2820591Y-650260D01*
X-2916478Y-650260D01*
X-3640378Y-650260D02*
G01*
X-3544491Y-650260D01*
X-3544491Y-518139D01*
X-3640378Y-518139D01*
X-3725621Y-650260D02*
G01*
X-3821508Y-650260D01*
X-3821508Y-518139D01*
X-3725621Y-518139D01*
X-957021Y904260D02*
G01*
X-1052908Y904260D01*
X-1052908Y772139D01*
X-957021Y772139D01*
X-871778Y904260D02*
G01*
X-775891Y904260D01*
X-775891Y772139D01*
X-871778Y772139D01*
X-871778Y-218460D02*
G01*
X-775891Y-218460D01*
X-775891Y-86339D01*
X-871778Y-86339D01*
X-957021Y-218460D02*
G01*
X-1052908Y-218460D01*
X-1052908Y-86339D01*
X-957021Y-86339D01*
D13*
X-800094Y-2743192D02*
G01*
X-1800092Y-2743192D01*
X-1800092Y-1743194D01*
X-800094Y-1743194D01*
X-800094Y-2743192D01*
G75*
G01*
X-1740751Y345361D02*
G02*
X-1709768Y376344I30983J0D01*
G75*
G01*
X-1709768Y234378D02*
G02*
X-1740751Y265364I0J30983D01*
G75*
G01*
X-1492181Y375763D02*
G02*
X-1461199Y344777I0J-30983D01*
G75*
G01*
X-1461199Y264780D02*
G02*
X-1492181Y233797I-30982J0D01*
G75*
G01*
X-1740751Y91361D02*
G02*
X-1709768Y122344I30983J0D01*
G75*
G01*
X-1709768Y-19622D02*
G02*
X-1740751Y11364I0J30983D01*
G75*
G01*
X-1492181Y121763D02*
G02*
X-1461199Y90777I0J-30983D01*
G75*
G01*
X-1461199Y10780D02*
G02*
X-1492181Y-20203I-30982J0D01*
G75*
G01*
X-1066800Y-2628900D02*
G03*
X-878853Y-2412274I-60708J242517D01*
G75*
G01*
X-1524000Y-1828800D02*
G03*
X-1711947Y-2045426I60708J-242517D01*
D14*
G75*
G01
X-3147390Y-4533900D02*
G03X-3147390Y-4533900I-180010J0D01*
G75*
G01
X-3034894Y-4533900D02*
G03X-3034894Y-4533900I-292506J0D01*
G75*
G01
X-1877390Y-4546600D02*
G03X-1877390Y-4546600I-180010J0D01*
G75*
G01
X-1764894Y-4546600D02*
G03X-1764894Y-4546600I-292506J0D01*
G75*
G01
X-620090Y-4521200D02*
G03X-620090Y-4521200I-180010J0D01*
G75*
G01
X-507594Y-4521200D02*
G03X-507594Y-4521200I-292506J0D01*
G75*
G01
X-3147390Y-5791200D02*
G03X-3147390Y-5791200I-180010J0D01*
G75*
G01
X-3034894Y-5791200D02*
G03X-3034894Y-5791200I-292506J0D01*
G75*
G01
X-1877390Y-5816600D02*
G03X-1877390Y-5816600I-180010J0D01*
G75*
G01
X-1764894Y-5816600D02*
G03X-1764894Y-5816600I-292506J0D01*
G75*
G01
X-620090Y-5791200D02*
G03X-620090Y-5791200I-180010J0D01*
G75*
G01
X-507594Y-5791200D02*
G03X-507594Y-5791200I-292506J0D01*
G75*
G01
X-3160090Y355600D02*
G03X-3160090Y355600I-180010J0D01*
G75*
G01
X-3047594Y355600D02*
G03X-3047594Y355600I-292506J0D01*
D13*
G75*
G01
X-86208Y-2586177D02*
G03X-86208Y-2586177I-1180008J0D01*
G75*
G01
X-1058088Y-2273300D02*
G03X-1058088Y-2273300I-250012J0D01*
M02*
