G04 Layer: TopLayer*
G04 EasyEDA v6.5.22, 2023-02-15 17:28:14*
G04 889346655b5e4dd39cbf71a95156414b,7be1179030e74d40a97a3c751b95adb4,10*
G04 Gerber Generator version 0.2*
G04 Scale: 100 percent, Rotated: No, Reflected: No *
G04 Dimensions in millimeters *
G04 leading zeros omitted , absolute positions ,4 integer and 5 decimal *
%FSLAX45Y45*%
%MOMM*%

%AMMACRO1*21,1,$1,$2,0,0,$3*%
%ADD10C,0.2540*%
%ADD11R,0.8000X0.9000*%
%ADD12MACRO1,0.864X0.8065X90.0000*%
%ADD13MACRO1,0.864X0.8065X-90.0000*%
%ADD14MACRO1,1.508X1.508X-90.0000*%
%ADD15C,1.5080*%
%ADD16C,1.6637*%
%ADD17MACRO1,1.6637X1.6637X0.0000*%
%ADD18O,0.7999984X2.7999944*%
%ADD19C,1.5240*%
%ADD20R,1.5240X1.5240*%
%ADD21C,0.6096*%

%LPD*%
D10*
X-1524863Y812800D02*
G01*
X-1524863Y741629D01*
X-1524863Y741629D02*
G01*
X-1498041Y714806D01*
X-1498041Y678484D01*
X-2872409Y-4533900D02*
G01*
X-2756103Y-4417593D01*
X-2756103Y-1413002D01*
X-1602409Y-4546600D02*
G01*
X-1377543Y-4321733D01*
X-1377543Y-3308756D01*
X-1359738Y-3290951D01*
X-1359738Y969949D01*
X-1456588Y1066800D01*
X-1524863Y1066800D02*
G01*
X-1456588Y1066800D01*
X-1524863Y1320800D02*
G01*
X-1593164Y1320800D01*
X-1593164Y1320800D02*
G01*
X-1593291Y1320672D01*
X-1593291Y690905D01*
X-1427378Y524992D01*
X-1427378Y-3257575D01*
X-1512163Y1574800D02*
G01*
X-1580464Y1574800D01*
X-1580464Y1574800D02*
G01*
X-1580464Y1506499D01*
X-1651863Y1435100D01*
X-1951964Y1435100D01*
X-2650489Y736574D01*
X-2650489Y-5569280D01*
X-2872409Y-5791200D01*
X-1512163Y1828800D02*
G01*
X-1443888Y1828800D01*
X-1443888Y1828800D02*
G01*
X-1303477Y1688388D01*
X-1303477Y-3063773D01*
X-1142898Y-3224352D01*
X-1142898Y-4225137D01*
X-1251102Y-4333341D01*
X-1251102Y-5923965D01*
X-1294307Y-5967171D01*
X-1451838Y-5967171D01*
X-1602409Y-5816600D01*
X-1499463Y2082800D02*
G01*
X-1431188Y2082800D01*
X-1431188Y2082800D02*
G01*
X-1216507Y1868119D01*
X-1216507Y-3013075D01*
X-853592Y-3375990D01*
X-853592Y-5282717D01*
X-345109Y-5791200D01*
X-1917700Y292100D02*
G01*
X-2037283Y172516D01*
X-2037283Y3429D01*
X-1935937Y-97917D01*
X-1871471Y-97917D01*
X-1658340Y-311048D01*
X-1658340Y-2910001D01*
X-1598168Y304800D02*
G01*
X-1598168Y372770D01*
X-1603298Y377901D01*
X-1831898Y377901D01*
X-1917700Y292100D01*
X-1530197Y304800D02*
G01*
X-1598168Y304800D01*
X-1917700Y38100D02*
G01*
X-1836953Y-42646D01*
X-1550670Y-42646D01*
X-1530197Y-22174D01*
X-1530197Y50800D02*
G01*
X-1530197Y14325D01*
X-1530197Y-3251D02*
G01*
X-1530197Y-22174D01*
X-1530197Y14325D02*
G01*
X-1530197Y-3251D01*
X-1511300Y-3378200D02*
G01*
X-1511300Y-41071D01*
X-1530197Y-22174D01*
X-3607663Y-584200D02*
G01*
X-3539388Y-584200D01*
X-2917901Y-584200D02*
G01*
X-2917901Y-619861D01*
X-2953537Y-655497D01*
X-3468090Y-655497D01*
X-3539388Y-584200D01*
X-2917901Y-584200D02*
G01*
X-2952064Y-584200D01*
X-2883763Y-584200D02*
G01*
X-2917901Y-584200D01*
X-2764485Y3706825D02*
G01*
X-2764485Y-305815D01*
X-2952064Y-493395D01*
X-2952064Y-584200D01*
X-3865092Y355600D02*
G01*
X-3826611Y317119D01*
X-3826611Y-584200D01*
X-3708400Y-2032000D02*
G01*
X-3826611Y-1913788D01*
X-3826611Y-584200D01*
X-3708400Y-2286000D02*
G01*
X-3708400Y-2032000D01*
X-3758336Y-584200D02*
G01*
X-3826611Y-584200D01*
X-1738172Y50800D02*
G01*
X-1758314Y30657D01*
X-1758314Y16433D01*
X-1670202Y50800D02*
G01*
X-1738172Y50800D01*
X-3454400Y-2286000D02*
G01*
X-3454400Y-2032000D01*
X-3454400Y-2540000D02*
G01*
X-3454400Y-2286000D01*
X-3708400Y-2540000D02*
G01*
X-3708400Y-2286000D01*
X-3852392Y-5791200D02*
G01*
X-3852392Y-4533900D01*
X-2582392Y-5816600D02*
G01*
X-2582392Y-4546600D01*
X-1325092Y-5791200D02*
G01*
X-1325092Y-4521200D01*
X-1670202Y304800D02*
G01*
X-1670202Y50800D01*
X-989736Y-152400D02*
G01*
X-921435Y-152400D01*
X-749300Y-238404D02*
G01*
X-416204Y-238404D01*
X-393700Y-215900D01*
X-921435Y-152400D02*
G01*
X-921435Y-220700D01*
X-903731Y-238404D01*
X-749300Y-238404D01*
X-749300Y-3274034D02*
G01*
X-749300Y-238404D01*
X-989736Y-152400D02*
G01*
X-989736Y838200D01*
X-749300Y-3378200D02*
G01*
X-749300Y-3274034D01*
X-839063Y838200D02*
G01*
X-431800Y838200D01*
X-393700Y800100D01*
X-1638300Y3733800D02*
G01*
X-839063Y2934563D01*
X-839063Y838200D01*
X-839063Y-152400D02*
G01*
X-839063Y100736D01*
X-393700Y546100D01*
X-3034436Y-584200D02*
G01*
X-3034436Y206273D01*
X-2885109Y355600D01*
X-1675536Y812800D02*
G01*
X-1905000Y812800D01*
X-1917700Y800100D01*
X-1675536Y1066800D02*
G01*
X-1905000Y1066800D01*
X-1917700Y1054100D01*
X-1675536Y1320800D02*
G01*
X-1905000Y1320800D01*
X-1917700Y1308100D01*
X-1662836Y1574800D02*
G01*
X-1905000Y1574800D01*
X-1917700Y1562100D01*
X-1662836Y1828800D02*
G01*
X-1905000Y1828800D01*
X-1917700Y1816100D01*
X-1650136Y2082800D02*
G01*
X-1905000Y2082800D01*
X-1917700Y2070100D01*
D11*
G01*
X-1530197Y304800D03*
G01*
X-1670202Y304800D03*
G01*
X-1530197Y50800D03*
G01*
X-1670202Y50800D03*
D12*
G01*
X-1524875Y812800D03*
G01*
X-1675524Y812800D03*
G01*
X-1524875Y1066800D03*
G01*
X-1675524Y1066800D03*
G01*
X-1524875Y1320800D03*
G01*
X-1675524Y1320800D03*
G01*
X-1512175Y1574800D03*
G01*
X-1662824Y1574800D03*
G01*
X-1512175Y1828800D03*
G01*
X-1662824Y1828800D03*
G01*
X-1499475Y2082800D03*
G01*
X-1650124Y2082800D03*
D13*
G01*
X-3034424Y-584200D03*
G01*
X-2883775Y-584200D03*
D12*
G01*
X-3607675Y-584200D03*
G01*
X-3758324Y-584200D03*
D13*
G01*
X-989724Y838200D03*
G01*
X-839075Y838200D03*
D12*
G01*
X-839075Y-152400D03*
G01*
X-989724Y-152400D03*
D14*
G01*
X-1917700Y-977900D03*
D15*
G01*
X-1917700Y-723900D03*
G01*
X-1917700Y-469900D03*
G01*
X-1917700Y-215900D03*
G01*
X-1917700Y38100D03*
G01*
X-1917700Y292100D03*
G01*
X-1917700Y546100D03*
G01*
X-1917700Y800100D03*
G01*
X-1917700Y1054100D03*
G01*
X-1917700Y1308100D03*
G01*
X-1917700Y1562100D03*
G01*
X-1917700Y1816100D03*
G01*
X-393700Y-977900D03*
G01*
X-393700Y-723900D03*
G01*
X-393700Y-469900D03*
G01*
X-393700Y-215900D03*
G01*
X-393700Y38100D03*
G01*
X-393700Y292100D03*
G01*
X-393700Y800100D03*
G01*
X-393700Y1054100D03*
G01*
X-393700Y1562100D03*
G01*
X-393700Y1816100D03*
G01*
X-393700Y1308100D03*
G01*
X-393700Y546100D03*
G01*
X-1917700Y2070100D03*
G01*
X-1917700Y2324100D03*
G01*
X-1917700Y2578100D03*
G01*
X-393700Y2070100D03*
G01*
X-393700Y2324100D03*
G01*
X-393700Y2578100D03*
D16*
G01*
X-3454400Y-1270000D03*
G01*
X-3708400Y-1270000D03*
G01*
X-3454400Y-1778000D03*
G01*
X-3708400Y-1778000D03*
G01*
X-3454400Y-2032000D03*
G01*
X-3708400Y-2032000D03*
G01*
X-3454400Y-2286000D03*
G01*
X-3708400Y-2286000D03*
G01*
X-3454400Y-2540000D03*
G01*
X-3708400Y-2540000D03*
G01*
X-3454400Y-1016000D03*
G01*
X-3708400Y-1016000D03*
G01*
X-3454400Y-1524000D03*
G01*
X-3708400Y-1524000D03*
G01*
X-3454400Y-2794000D03*
D17*
G01*
X-3708400Y-2794000D03*
D18*
G01*
X-3704412Y-4533900D03*
G01*
X-2872409Y-4533900D03*
G01*
X-3852392Y-4533900D03*
G01*
X-2434412Y-4546600D03*
G01*
X-1602409Y-4546600D03*
G01*
X-2582392Y-4546600D03*
G01*
X-1177112Y-4521200D03*
G01*
X-345109Y-4521200D03*
G01*
X-1325092Y-4521200D03*
G01*
X-3704412Y-5791200D03*
G01*
X-2872409Y-5791200D03*
G01*
X-3852392Y-5791200D03*
G01*
X-2434412Y-5816600D03*
G01*
X-1602409Y-5816600D03*
G01*
X-2582392Y-5816600D03*
G01*
X-1177112Y-5791200D03*
G01*
X-345109Y-5791200D03*
G01*
X-1325092Y-5791200D03*
G01*
X-3717112Y355600D03*
G01*
X-2885109Y355600D03*
G01*
X-3865092Y355600D03*
D19*
G01*
X-1638300Y3733800D03*
G01*
X-1892300Y3733800D03*
G01*
X-2146300Y3733800D03*
G01*
X-2400300Y3733800D03*
D20*
G01*
X-749300Y-3378200D03*
D19*
G01*
X-1003300Y-3378200D03*
G01*
X-1257300Y-3378200D03*
G01*
X-1511300Y-3378200D03*
G01*
X-1765300Y-3378200D03*
D21*
G01*
X-2756103Y-1413002D03*
G01*
X-1498041Y678484D03*
G01*
X-1427378Y-3257575D03*
G01*
X-1658340Y-2910001D03*
G01*
X-2764485Y3706825D03*
G01*
X-1758314Y16433D03*
M02*
