G04 Layer: BottomSilkscreenLayer*
G04 EasyEDA v6.5.22, 2023-02-15 17:28:14*
G04 889346655b5e4dd39cbf71a95156414b,7be1179030e74d40a97a3c751b95adb4,10*
G04 Gerber Generator version 0.2*
G04 Scale: 100 percent, Rotated: No, Reflected: No *
G04 Dimensions in millimeters *
G04 leading zeros omitted , absolute positions ,4 integer and 5 decimal *
%FSLAX45Y45*%
%MOMM*%

%ADD10C,0.1524*%
%ADD11C,0.1422*%
%ADD12C,0.0813*%
%ADD13C,0.1499*%
%ADD14C,0.2032*%
%ADD15C,0.1270*%
%ADD16C,0.2007*%
%ADD17C,0.0118*%

%LPD*%
D10*
X-2185415Y876300D02*
G01*
X-2076450Y876300D01*
X-2185415Y876300D02*
G01*
X-2076450Y834644D01*
X-2185415Y793242D02*
G01*
X-2076450Y834644D01*
X-2185415Y793242D02*
G01*
X-2076450Y793242D01*
X-2164587Y758952D02*
G01*
X-2169921Y748537D01*
X-2185415Y732789D01*
X-2076450Y732789D01*
D11*
X-1258823Y2832100D02*
G01*
X-1137665Y2832100D01*
X-1113536Y2823971D01*
X-1097279Y2807970D01*
X-1089152Y2783586D01*
X-1089152Y2767329D01*
X-1097279Y2743200D01*
X-1113536Y2726944D01*
X-1137665Y2719070D01*
X-1258823Y2719070D01*
X-1234694Y2552445D02*
G01*
X-1250950Y2568702D01*
X-1258823Y2592831D01*
X-1258823Y2625089D01*
X-1250950Y2649473D01*
X-1234694Y2665729D01*
X-1218437Y2665729D01*
X-1202436Y2657602D01*
X-1194307Y2649473D01*
X-1186179Y2633218D01*
X-1169923Y2584704D01*
X-1162050Y2568702D01*
X-1153921Y2560573D01*
X-1137665Y2552445D01*
X-1113536Y2552445D01*
X-1097279Y2568702D01*
X-1089152Y2592831D01*
X-1089152Y2625089D01*
X-1097279Y2649473D01*
X-1113536Y2665729D01*
X-1258823Y2499105D02*
G01*
X-1089152Y2499105D01*
X-1258823Y2499105D02*
G01*
X-1258823Y2426462D01*
X-1250950Y2402078D01*
X-1242821Y2393950D01*
X-1226565Y2386076D01*
X-1210310Y2386076D01*
X-1194307Y2393950D01*
X-1186179Y2402078D01*
X-1178052Y2426462D01*
X-1178052Y2499105D02*
G01*
X-1178052Y2426462D01*
X-1169923Y2402078D01*
X-1162050Y2393950D01*
X-1145794Y2386076D01*
X-1121410Y2386076D01*
X-1105407Y2393950D01*
X-1097279Y2402078D01*
X-1089152Y2426462D01*
X-1089152Y2499105D01*
D12*
X-889000Y496315D02*
G01*
X-889000Y399287D01*
X-889000Y496315D02*
G01*
X-930655Y496315D01*
X-944371Y491489D01*
X-948944Y486918D01*
X-953770Y477773D01*
X-953770Y468629D01*
X-948944Y459231D01*
X-944371Y454660D01*
X-930655Y450087D01*
X-889000Y450087D01*
X-921257Y450087D02*
G01*
X-953770Y399287D01*
X-984250Y496315D02*
G01*
X-984250Y399287D01*
X-984250Y496315D02*
G01*
X-1044194Y496315D01*
X-984250Y450087D02*
G01*
X-1021079Y450087D01*
X-984250Y399287D02*
G01*
X-1044194Y399287D01*
X-1139189Y482345D02*
G01*
X-1130045Y491489D01*
X-1116329Y496315D01*
X-1097787Y496315D01*
X-1083818Y491489D01*
X-1074673Y482345D01*
X-1074673Y473202D01*
X-1079245Y463804D01*
X-1083818Y459231D01*
X-1093215Y454660D01*
X-1120902Y445515D01*
X-1130045Y440689D01*
X-1134618Y436118D01*
X-1139189Y426973D01*
X-1139189Y413004D01*
X-1130045Y403860D01*
X-1116329Y399287D01*
X-1097787Y399287D01*
X-1083818Y403860D01*
X-1074673Y413004D01*
X-1169670Y496315D02*
G01*
X-1169670Y399287D01*
X-1169670Y496315D02*
G01*
X-1229868Y496315D01*
X-1169670Y450087D02*
G01*
X-1206754Y450087D01*
X-1169670Y399287D02*
G01*
X-1229868Y399287D01*
X-1292605Y496315D02*
G01*
X-1292605Y399287D01*
X-1260347Y496315D02*
G01*
X-1324863Y496315D01*
D10*
X-3251200Y-354584D02*
G01*
X-3251200Y-463550D01*
X-3251200Y-354584D02*
G01*
X-3297936Y-354584D01*
X-3313429Y-359663D01*
X-3318763Y-364997D01*
X-3323844Y-375412D01*
X-3323844Y-390905D01*
X-3318763Y-401320D01*
X-3313429Y-406400D01*
X-3297936Y-411734D01*
X-3251200Y-411734D01*
X-3363468Y-380492D02*
G01*
X-3363468Y-375412D01*
X-3368547Y-364997D01*
X-3373881Y-359663D01*
X-3384295Y-354584D01*
X-3404870Y-354584D01*
X-3415284Y-359663D01*
X-3420618Y-364997D01*
X-3425697Y-375412D01*
X-3425697Y-385826D01*
X-3420618Y-396239D01*
X-3410204Y-411734D01*
X-3358134Y-463550D01*
X-3431031Y-463550D01*
D13*
X-3923029Y-1115060D02*
G01*
X-3916171Y-1101344D01*
X-3895852Y-1081023D01*
X-4039107Y-1081023D01*
X-3895852Y-954023D02*
G01*
X-3895852Y-1022350D01*
X-3957065Y-1029207D01*
X-3950462Y-1022350D01*
X-3943604Y-1001776D01*
X-3943604Y-981202D01*
X-3950462Y-960881D01*
X-3963923Y-947165D01*
X-3984497Y-940307D01*
X-3998213Y-940307D01*
X-4018534Y-947165D01*
X-4032250Y-960881D01*
X-4039107Y-981202D01*
X-4039107Y-1001776D01*
X-4032250Y-1022350D01*
X-4025392Y-1029207D01*
X-4011676Y-1035812D01*
X-3280410Y-1115060D02*
G01*
X-3273552Y-1101344D01*
X-3253231Y-1081023D01*
X-3396487Y-1081023D01*
X-3273552Y-954023D02*
G01*
X-3260089Y-960881D01*
X-3253231Y-981202D01*
X-3253231Y-994918D01*
X-3260089Y-1015492D01*
X-3280410Y-1029207D01*
X-3314445Y-1035812D01*
X-3348736Y-1035812D01*
X-3375913Y-1029207D01*
X-3389629Y-1015492D01*
X-3396487Y-994918D01*
X-3396487Y-988060D01*
X-3389629Y-967739D01*
X-3375913Y-954023D01*
X-3355594Y-947165D01*
X-3348736Y-947165D01*
X-3328162Y-954023D01*
X-3314445Y-967739D01*
X-3307842Y-988060D01*
X-3307842Y-994918D01*
X-3314445Y-1015492D01*
X-3328162Y-1029207D01*
X-3348736Y-1035812D01*
X-3923029Y-2819400D02*
G01*
X-3916171Y-2805684D01*
X-3895852Y-2785363D01*
X-4039107Y-2785363D01*
X-3287268Y-2837942D02*
G01*
X-3280410Y-2837942D01*
X-3266694Y-2831084D01*
X-3260089Y-2824226D01*
X-3253231Y-2810763D01*
X-3253231Y-2783331D01*
X-3260089Y-2769615D01*
X-3266694Y-2763012D01*
X-3280410Y-2756154D01*
X-3294126Y-2756154D01*
X-3307842Y-2763012D01*
X-3328162Y-2776473D01*
X-3396487Y-2844800D01*
X-3396487Y-2749295D01*
D14*
X-547077Y-2997314D02*
G01*
X-690333Y-2942704D01*
X-547077Y-2888094D02*
G01*
X-690333Y-2942704D01*
X-547077Y-2843136D02*
G01*
X-690333Y-2843136D01*
X-547077Y-2843136D02*
G01*
X-547077Y-2795384D01*
X-553935Y-2774810D01*
X-567651Y-2761348D01*
X-581113Y-2754490D01*
X-601687Y-2747632D01*
X-635723Y-2747632D01*
X-656297Y-2754490D01*
X-669759Y-2761348D01*
X-683475Y-2774810D01*
X-690333Y-2795384D01*
X-690333Y-2843136D01*
X-547077Y-2702674D02*
G01*
X-690333Y-2702674D01*
X-547077Y-2702674D02*
G01*
X-547077Y-2654922D01*
X-553935Y-2634602D01*
X-567651Y-2620886D01*
X-581113Y-2614028D01*
X-601687Y-2607170D01*
X-635723Y-2607170D01*
X-656297Y-2614028D01*
X-669759Y-2620886D01*
X-683475Y-2634602D01*
X-690333Y-2654922D01*
X-690333Y-2702674D01*
X-940772Y-3225906D02*
G01*
X-1084028Y-3225906D01*
X-940772Y-3130402D02*
G01*
X-1036276Y-3225906D01*
X-1002240Y-3191616D02*
G01*
X-1084028Y-3130402D01*
X-940772Y-3085444D02*
G01*
X-1084028Y-3085444D01*
X-940772Y-3085444D02*
G01*
X-940772Y-2996798D01*
X-1009098Y-3085444D02*
G01*
X-1009098Y-3030834D01*
X-1084028Y-3085444D02*
G01*
X-1084028Y-2996798D01*
X-940772Y-2951586D02*
G01*
X-1009098Y-2897230D01*
X-1084028Y-2897230D01*
X-940772Y-2842620D02*
G01*
X-1009098Y-2897230D01*
X-1215346Y-3130402D02*
G01*
X-1201630Y-3143864D01*
X-1194772Y-3164438D01*
X-1194772Y-3191616D01*
X-1201630Y-3212190D01*
X-1215346Y-3225906D01*
X-1228808Y-3225906D01*
X-1242524Y-3219048D01*
X-1249382Y-3212190D01*
X-1256240Y-3198474D01*
X-1269956Y-3157580D01*
X-1276560Y-3143864D01*
X-1283418Y-3137260D01*
X-1297134Y-3130402D01*
X-1317454Y-3130402D01*
X-1331170Y-3143864D01*
X-1338028Y-3164438D01*
X-1338028Y-3191616D01*
X-1331170Y-3212190D01*
X-1317454Y-3225906D01*
X-1228808Y-3078586D02*
G01*
X-1222204Y-3078586D01*
X-1208488Y-3071728D01*
X-1201630Y-3064870D01*
X-1194772Y-3051154D01*
X-1194772Y-3023976D01*
X-1201630Y-3010260D01*
X-1208488Y-3003402D01*
X-1222204Y-2996798D01*
X-1235666Y-2996798D01*
X-1249382Y-3003402D01*
X-1269956Y-3017118D01*
X-1338028Y-3085444D01*
X-1338028Y-2989940D01*
X-1456646Y-3143102D02*
G01*
X-1442930Y-3156564D01*
X-1436072Y-3177138D01*
X-1436072Y-3204316D01*
X-1442930Y-3224890D01*
X-1456646Y-3238606D01*
X-1470108Y-3238606D01*
X-1483824Y-3231748D01*
X-1490682Y-3224890D01*
X-1497540Y-3211174D01*
X-1511256Y-3170280D01*
X-1517860Y-3156564D01*
X-1524718Y-3149960D01*
X-1538434Y-3143102D01*
X-1558754Y-3143102D01*
X-1572470Y-3156564D01*
X-1579328Y-3177138D01*
X-1579328Y-3204316D01*
X-1572470Y-3224890D01*
X-1558754Y-3238606D01*
X-1463504Y-3098144D02*
G01*
X-1456646Y-3084428D01*
X-1436072Y-3063854D01*
X-1579328Y-3063854D01*
X-1724108Y-3136244D02*
G01*
X-1710646Y-3143102D01*
X-1696930Y-3156564D01*
X-1690072Y-3170280D01*
X-1690072Y-3197712D01*
X-1696930Y-3211174D01*
X-1710646Y-3224890D01*
X-1724108Y-3231748D01*
X-1744682Y-3238606D01*
X-1778718Y-3238606D01*
X-1799292Y-3231748D01*
X-1812754Y-3224890D01*
X-1826470Y-3211174D01*
X-1833328Y-3197712D01*
X-1833328Y-3170280D01*
X-1826470Y-3156564D01*
X-1812754Y-3143102D01*
X-1799292Y-3136244D01*
X-1778718Y-3136244D01*
X-1778718Y-3170280D02*
G01*
X-1778718Y-3136244D01*
X-1690072Y-3091286D02*
G01*
X-1833328Y-3091286D01*
X-1690072Y-3091286D02*
G01*
X-1833328Y-2995782D01*
X-1690072Y-2995782D02*
G01*
X-1833328Y-2995782D01*
X-1690072Y-2950824D02*
G01*
X-1833328Y-2950824D01*
X-1690072Y-2950824D02*
G01*
X-1690072Y-2903072D01*
X-1696930Y-2882498D01*
X-1710646Y-2869036D01*
X-1724108Y-2862178D01*
X-1744682Y-2855320D01*
X-1778718Y-2855320D01*
X-1799292Y-2862178D01*
X-1812754Y-2869036D01*
X-1826470Y-2882498D01*
X-1833328Y-2903072D01*
X-1833328Y-2950824D01*
D15*
X-2044700Y1879600D02*
G01*
X-1981200Y1943100D01*
X-2044700Y2006600D01*
X-2044700Y2133600D01*
X-1981200Y2197100D01*
X-2044700Y2260600D01*
X-2044700Y2387600D01*
X-1981200Y2451100D01*
X-2044700Y2514600D01*
X-2044700Y2641600D01*
X-1981200Y2705100D01*
X-1854200Y2705100D01*
X-1790700Y2641600D01*
X-1790700Y2514600D01*
X-1854200Y2451100D01*
X-1790700Y2387600D01*
X-1790700Y2260600D01*
X-1854200Y2197100D01*
X-1790700Y2133600D01*
X-1790700Y2006600D01*
X-1854200Y1943100D01*
X-1790700Y1879600D01*
X-1790700Y1752600D01*
X-1854200Y1689100D01*
X-1790700Y1625600D01*
X-1790700Y1498600D01*
X-1854200Y1435100D01*
X-1790700Y1371600D01*
X-1790700Y1244600D01*
X-1854200Y1181100D01*
X-1790700Y1117600D01*
X-1790700Y990600D01*
X-1854200Y927100D01*
X-1790700Y863600D01*
X-1790700Y736600D01*
X-1854200Y673100D01*
X-1790700Y609600D01*
X-1790700Y482600D01*
X-1854200Y419100D01*
X-1790700Y355600D01*
X-1790700Y228600D01*
X-1854200Y165100D01*
X-1790700Y101600D01*
X-1790700Y-25400D01*
X-1854200Y-88900D01*
X-1790700Y-152400D01*
X-1790700Y-279400D01*
X-1854200Y-342900D01*
X-1790700Y-406400D01*
X-1790700Y-533400D01*
X-1854200Y-596900D01*
X-1790700Y-660400D01*
X-1790700Y-787400D01*
X-1854200Y-850900D01*
X-1790700Y-914400D01*
X-1790700Y-1041400D01*
X-1854200Y-1104900D01*
X-1981200Y-1104900D01*
X-2044700Y-1041400D01*
X-2044700Y-914400D02*
G01*
X-1981200Y-850900D01*
X-2044700Y-787400D01*
X-2044700Y-1358900D01*
X-1473200Y-1358900D01*
X-838200Y-1358900D01*
X-266700Y-1358900D01*
X-266700Y-914400D01*
X-266700Y-787400D01*
X-330200Y-850900D01*
X-266700Y-914400D01*
X-2044700Y-660400D02*
G01*
X-1981200Y-596900D01*
X-2044700Y-533400D01*
X-2044700Y-787400D02*
G01*
X-2044700Y-406400D01*
X-1981200Y-342900D01*
X-2044700Y-279400D01*
X-2044700Y-152400D02*
G01*
X-1981200Y-88900D01*
X-2044700Y-25400D01*
X-2044700Y101600D02*
G01*
X-1981200Y165100D01*
X-2044700Y228600D01*
X-2044700Y355600D02*
G01*
X-1981200Y419100D01*
X-2044700Y482600D01*
X-2044700Y609600D02*
G01*
X-1981200Y673100D01*
X-2044700Y736600D01*
X-2044700Y863600D02*
G01*
X-1981200Y927100D01*
X-2044700Y990600D01*
X-2044700Y1117600D02*
G01*
X-1981200Y1181100D01*
X-2044700Y1244600D01*
X-2044700Y2006600D01*
X-2044700Y1371600D02*
G01*
X-1981200Y1435100D01*
X-2044700Y1498600D01*
X-2044700Y1625600D02*
G01*
X-1981200Y1689100D01*
X-2044700Y1752600D01*
X-266700Y-1041400D02*
G01*
X-330200Y-1104900D01*
X-457200Y-1104900D01*
X-520700Y-1041400D01*
X-520700Y-914400D01*
X-457200Y-850900D01*
X-520700Y-787400D01*
X-520700Y-660400D01*
X-457200Y-596900D01*
X-520700Y-533400D01*
X-520700Y-406400D01*
X-457200Y-342900D01*
X-520700Y-279400D01*
X-520700Y-152400D01*
X-457200Y-88900D01*
X-520700Y-25400D01*
X-520700Y101600D01*
X-457200Y165100D01*
X-520700Y228600D01*
X-520700Y355600D01*
X-457200Y419100D01*
X-520700Y482600D01*
X-520700Y609600D01*
X-457200Y673100D01*
X-520700Y736600D01*
X-520700Y863600D01*
X-457200Y927100D01*
X-520700Y990600D01*
X-520700Y1117600D01*
X-457200Y1181100D01*
X-520700Y1244600D01*
X-520700Y1371600D01*
X-457200Y1435100D01*
X-520700Y1498600D01*
X-520700Y1625600D01*
X-457200Y1689100D01*
X-520700Y1752600D01*
X-520700Y1879600D01*
X-457200Y1943100D01*
X-520700Y2006600D01*
X-520700Y2133600D01*
X-457200Y2197100D01*
X-520700Y2260600D01*
X-520700Y2387600D01*
X-457200Y2451100D01*
X-520700Y2514600D01*
X-520700Y2641600D01*
X-457200Y2705100D01*
X-330200Y2705100D01*
X-266700Y2641600D01*
X-266700Y2959100D01*
X-838200Y2959100D01*
X-838200Y2197100D01*
X-1473200Y2197100D01*
X-1473200Y2959100D01*
X-1473200Y3086100D01*
X-838200Y3086100D01*
X-838200Y2959100D01*
X-266700Y1879600D02*
G01*
X-330200Y1943100D01*
X-266700Y2006600D01*
X-266700Y2133600D01*
X-330200Y2197100D01*
X-266700Y2260600D01*
X-266700Y2387600D01*
X-330200Y2451100D01*
X-266700Y2514600D01*
X-266700Y2641600D01*
X-2044700Y-406400D02*
G01*
X-2044700Y1244600D01*
X-266700Y1625600D02*
G01*
X-330200Y1689100D01*
X-266700Y1752600D01*
X-266700Y1625600D01*
X-266700Y1498600D01*
X-266700Y1371600D01*
X-266700Y1244600D01*
X-266700Y1117600D01*
X-266700Y990600D01*
X-266700Y863600D01*
X-266700Y736600D01*
X-266700Y609600D01*
X-266700Y482600D01*
X-266700Y355600D01*
X-266700Y228600D01*
X-266700Y101600D01*
X-266700Y-25400D01*
X-266700Y-152400D01*
X-266700Y-279400D01*
X-266700Y-406400D01*
X-266700Y-533400D01*
X-266700Y-660400D01*
X-266700Y-787400D01*
X-266700Y1498600D02*
G01*
X-330200Y1435100D01*
X-266700Y1371600D01*
X-266700Y1244600D02*
G01*
X-330200Y1181100D01*
X-266700Y1117600D01*
X-266700Y990600D02*
G01*
X-330200Y927100D01*
X-266700Y863600D01*
X-266700Y736600D02*
G01*
X-330200Y673100D01*
X-266700Y609600D01*
X-266700Y482600D02*
G01*
X-330200Y419100D01*
X-266700Y355600D01*
X-266700Y228600D02*
G01*
X-330200Y165100D01*
X-266700Y101600D01*
X-266700Y-25400D02*
G01*
X-330200Y-88900D01*
X-266700Y-152400D01*
X-266700Y-279400D02*
G01*
X-330200Y-342900D01*
X-266700Y-406400D01*
X-266700Y-533400D02*
G01*
X-330200Y-596900D01*
X-266700Y-660400D01*
X-2044700Y2133600D02*
G01*
X-2044700Y2260600D01*
X-2044700Y2387600D02*
G01*
X-2044700Y2514600D01*
X-2044700Y2641600D02*
G01*
X-2044700Y2959100D01*
X-1473200Y2959100D01*
X-266700Y2514600D02*
G01*
X-266700Y2387600D01*
X-266700Y2260600D02*
G01*
X-266700Y2133600D01*
X-266700Y2006600D02*
G01*
X-266700Y1752600D01*
X-901700Y673100D02*
G01*
X-901700Y419100D01*
X-1282700Y419100D01*
X-1282700Y673100D01*
X-901700Y673100D01*
D16*
X-2509520Y-2109978D02*
G01*
X-3106420Y-2109978D01*
X-3106420Y-1700021D01*
X-2509520Y-1700021D01*
X-2509520Y-3302000D02*
G01*
X-3454400Y-3302000D01*
X-3454400Y-2916428D01*
X-3454400Y-893571D02*
G01*
X-3454400Y-508000D01*
X-2509520Y-508000D01*
X-2509520Y-3302000D01*
D15*
G75*
G01*
X-1092200Y469900D02*
G02*
X-1091794Y469900I203J76200D01*
M02*
