G04 Layer: BottomLayer*
G04 EasyEDA v6.5.22, 2023-02-15 17:28:14*
G04 889346655b5e4dd39cbf71a95156414b,7be1179030e74d40a97a3c751b95adb4,10*
G04 Gerber Generator version 0.2*
G04 Scale: 100 percent, Rotated: No, Reflected: No *
G04 Dimensions in millimeters *
G04 leading zeros omitted , absolute positions ,4 integer and 5 decimal *
%FSLAX45Y45*%
%MOMM*%

%AMMACRO1*21,1,$1,$2,0,0,$3*%
%ADD10C,0.2540*%
%ADD11MACRO1,1.508X1.508X-90.0000*%
%ADD12C,1.5080*%
%ADD13C,1.6637*%
%ADD14MACRO1,1.6637X1.6637X0.0000*%
%ADD15O,0.7999984X2.7999944*%
%ADD16C,1.5240*%
%ADD17R,1.5240X1.5240*%
%ADD18C,0.6096*%

%LPD*%
D10*
X-1498041Y678484D02*
G01*
X-1498041Y-216509D01*
X-1898065Y-616534D01*
X-1959635Y-616534D01*
X-2756103Y-1413002D01*
X-345109Y-4521200D02*
G01*
X-1384300Y-3482009D01*
X-1384300Y-3300653D01*
X-1427378Y-3257575D01*
X-1658340Y-2910001D02*
G01*
X-1257300Y-3311042D01*
X-1257300Y-3378200D01*
X-1917700Y-215900D02*
G01*
X-1917700Y-142951D01*
X-1758314Y16433D01*
X-3865092Y355600D02*
G01*
X-3865092Y287680D01*
X-3361512Y-215900D01*
X-1917700Y-215900D01*
X-3708400Y-2540000D02*
G01*
X-3454400Y-2540000D01*
X-1765300Y-3378200D02*
G01*
X-2603500Y-2540000D01*
X-3454400Y-2540000D01*
X-1765300Y-4080992D02*
G01*
X-1765300Y-3378200D01*
X-2582392Y-4477486D02*
G01*
X-2582392Y-4546600D01*
X-1765300Y-4080992D02*
G01*
X-2185898Y-4080992D01*
X-2582392Y-4477486D01*
X-2582392Y-4477486D02*
G01*
X-2703321Y-4356557D01*
X-3732809Y-4356557D01*
X-3852392Y-4476140D01*
X-3852392Y-4533900D01*
X-1765300Y-4080992D02*
G01*
X-1325092Y-4521200D01*
X-2400300Y3733800D02*
G01*
X-3865092Y2269007D01*
X-3865092Y355600D01*
X-749300Y-3378200D02*
G01*
X-853465Y-3378200D01*
X-3454400Y-1524000D02*
G01*
X-2957804Y-1524000D01*
X-1112088Y-3369716D01*
X-1112088Y-3426104D01*
X-1045895Y-3492296D01*
X-967562Y-3492296D01*
X-853465Y-3378200D01*
X-3708400Y-1524000D02*
G01*
X-3454400Y-1524000D01*
X-1003300Y-3378200D02*
G01*
X-1003300Y1663700D01*
X-1917700Y2578100D01*
X-2764536Y3706876D02*
G01*
X-2610612Y3860800D01*
X-1828800Y3860800D01*
X-1765300Y3797300D01*
X-1765300Y3695700D01*
X-647700Y2578100D01*
X-393700Y2578100D01*
X-2146300Y3733800D02*
G01*
X-596900Y2184400D01*
X-596900Y-12700D01*
X-393700Y-215900D01*
X-1892300Y3733800D02*
G01*
X-1892300Y3683000D01*
X-533400Y2324100D01*
X-533400Y685800D01*
X-393700Y546100D01*
D11*
G01*
X-1917700Y-977900D03*
D12*
G01*
X-1917700Y-723900D03*
G01*
X-1917700Y-469900D03*
G01*
X-1917700Y-215900D03*
G01*
X-1917700Y38100D03*
G01*
X-1917700Y292100D03*
G01*
X-1917700Y546100D03*
G01*
X-1917700Y800100D03*
G01*
X-1917700Y1054100D03*
G01*
X-1917700Y1308100D03*
G01*
X-1917700Y1562100D03*
G01*
X-1917700Y1816100D03*
G01*
X-393700Y-977900D03*
G01*
X-393700Y-723900D03*
G01*
X-393700Y-469900D03*
G01*
X-393700Y-215900D03*
G01*
X-393700Y38100D03*
G01*
X-393700Y292100D03*
G01*
X-393700Y800100D03*
G01*
X-393700Y1054100D03*
G01*
X-393700Y1562100D03*
G01*
X-393700Y1816100D03*
G01*
X-393700Y1308100D03*
G01*
X-393700Y546100D03*
G01*
X-1917700Y2070100D03*
G01*
X-1917700Y2324100D03*
G01*
X-1917700Y2578100D03*
G01*
X-393700Y2070100D03*
G01*
X-393700Y2324100D03*
G01*
X-393700Y2578100D03*
D13*
G01*
X-3454400Y-1270000D03*
G01*
X-3708400Y-1270000D03*
G01*
X-3454400Y-1778000D03*
G01*
X-3708400Y-1778000D03*
G01*
X-3454400Y-2032000D03*
G01*
X-3708400Y-2032000D03*
G01*
X-3454400Y-2286000D03*
G01*
X-3708400Y-2286000D03*
G01*
X-3454400Y-2540000D03*
G01*
X-3708400Y-2540000D03*
G01*
X-3454400Y-1016000D03*
G01*
X-3708400Y-1016000D03*
G01*
X-3454400Y-1524000D03*
G01*
X-3708400Y-1524000D03*
G01*
X-3454400Y-2794000D03*
D14*
G01*
X-3708400Y-2794000D03*
D15*
G01*
X-3704412Y-4533900D03*
G01*
X-2872409Y-4533900D03*
G01*
X-3852392Y-4533900D03*
G01*
X-2434412Y-4546600D03*
G01*
X-1602409Y-4546600D03*
G01*
X-2582392Y-4546600D03*
G01*
X-1177112Y-4521200D03*
G01*
X-345109Y-4521200D03*
G01*
X-1325092Y-4521200D03*
G01*
X-3704412Y-5791200D03*
G01*
X-2872409Y-5791200D03*
G01*
X-3852392Y-5791200D03*
G01*
X-2434412Y-5816600D03*
G01*
X-1602409Y-5816600D03*
G01*
X-2582392Y-5816600D03*
G01*
X-1177112Y-5791200D03*
G01*
X-345109Y-5791200D03*
G01*
X-1325092Y-5791200D03*
G01*
X-3717112Y355600D03*
G01*
X-2885109Y355600D03*
G01*
X-3865092Y355600D03*
D16*
G01*
X-1638300Y3733800D03*
G01*
X-1892300Y3733800D03*
G01*
X-2146300Y3733800D03*
G01*
X-2400300Y3733800D03*
D17*
G01*
X-749300Y-3378200D03*
D16*
G01*
X-1003300Y-3378200D03*
G01*
X-1257300Y-3378200D03*
G01*
X-1511300Y-3378200D03*
G01*
X-1765300Y-3378200D03*
D18*
G01*
X-2756103Y-1413002D03*
G01*
X-1498041Y678484D03*
G01*
X-1427378Y-3257575D03*
G01*
X-1658340Y-2910001D03*
G01*
X-2764485Y3706825D03*
G01*
X-1758314Y16433D03*
M02*
