G04 Layer: BottomSolderMaskLayer*
G04 EasyEDA v6.5.22, 2023-02-15 17:28:14*
G04 889346655b5e4dd39cbf71a95156414b,7be1179030e74d40a97a3c751b95adb4,10*
G04 Gerber Generator version 0.2*
G04 Scale: 100 percent, Rotated: No, Reflected: No *
G04 Dimensions in millimeters *
G04 leading zeros omitted , absolute positions ,4 integer and 5 decimal *
%FSLAX45Y45*%
%MOMM*%

%AMMACRO1*1,1,$1,$2,$3*1,1,$1,$4,$5*1,1,$1,0-$2,0-$3*1,1,$1,0-$4,0-$5*20,1,$1,$2,$3,$4,$5,0*20,1,$1,$4,$5,0-$2,0-$3,0*20,1,$1,0-$2,0-$3,0-$4,0-$5,0*20,1,$1,0-$4,0-$5,$2,$3,0*4,1,4,$2,$3,$4,$5,0-$2,0-$3,0-$4,0-$5,$2,$3,0*%
%ADD10MACRO1,0.1016X-0.754X0.754X-0.754X-0.754*%
%ADD11C,1.6096*%
%ADD12C,1.7653*%
%ADD13MACRO1,0.1016X-0.8319X-0.8319X0.8319X-0.8319*%
%ADD14O,1.0031984X3.0031944000000004*%
%ADD15C,1.7272*%
%ADD16MACRO1,0.2032X0.762X-0.762X-0.762X-0.762*%

%LPD*%
D10*
G01*
X-1917700Y-977900D03*
D11*
G01*
X-1917700Y-723900D03*
G01*
X-1917700Y-469900D03*
G01*
X-1917700Y-215900D03*
G01*
X-1917700Y38100D03*
G01*
X-1917700Y292100D03*
G01*
X-1917700Y546100D03*
G01*
X-1917700Y800100D03*
G01*
X-1917700Y1054100D03*
G01*
X-1917700Y1308100D03*
G01*
X-1917700Y1562100D03*
G01*
X-1917700Y1816100D03*
G01*
X-393700Y-977900D03*
G01*
X-393700Y-723900D03*
G01*
X-393700Y-469900D03*
G01*
X-393700Y-215900D03*
G01*
X-393700Y38100D03*
G01*
X-393700Y292100D03*
G01*
X-393700Y800100D03*
G01*
X-393700Y1054100D03*
G01*
X-393700Y1562100D03*
G01*
X-393700Y1816100D03*
G01*
X-393700Y1308100D03*
G01*
X-393700Y546100D03*
G01*
X-1917700Y2070100D03*
G01*
X-1917700Y2324100D03*
G01*
X-1917700Y2578100D03*
G01*
X-393700Y2070100D03*
G01*
X-393700Y2324100D03*
G01*
X-393700Y2578100D03*
D12*
G01*
X-3454400Y-1270000D03*
G01*
X-3708400Y-1270000D03*
G01*
X-3454400Y-1778000D03*
G01*
X-3708400Y-1778000D03*
G01*
X-3454400Y-2032000D03*
G01*
X-3708400Y-2032000D03*
G01*
X-3454400Y-2286000D03*
G01*
X-3708400Y-2286000D03*
G01*
X-3454400Y-2540000D03*
G01*
X-3708400Y-2540000D03*
G01*
X-3454400Y-1016000D03*
G01*
X-3708400Y-1016000D03*
G01*
X-3454400Y-1524000D03*
G01*
X-3708400Y-1524000D03*
G01*
X-3454400Y-2794000D03*
D13*
G01*
X-3708400Y-2794000D03*
D14*
G01*
X-3704412Y-4533900D03*
G01*
X-2872409Y-4533900D03*
G01*
X-3852392Y-4533900D03*
G01*
X-2434412Y-4546600D03*
G01*
X-1602409Y-4546600D03*
G01*
X-2582392Y-4546600D03*
G01*
X-1177112Y-4521200D03*
G01*
X-345109Y-4521200D03*
G01*
X-1325092Y-4521200D03*
G01*
X-3704412Y-5791200D03*
G01*
X-2872409Y-5791200D03*
G01*
X-3852392Y-5791200D03*
G01*
X-2434412Y-5816600D03*
G01*
X-1602409Y-5816600D03*
G01*
X-2582392Y-5816600D03*
G01*
X-1177112Y-5791200D03*
G01*
X-345109Y-5791200D03*
G01*
X-1325092Y-5791200D03*
G01*
X-3717112Y355600D03*
G01*
X-2885109Y355600D03*
G01*
X-3865092Y355600D03*
D15*
G01*
X-1638300Y3733800D03*
G01*
X-1892300Y3733800D03*
G01*
X-2146300Y3733800D03*
G01*
X-2400300Y3733800D03*
D16*
G01*
X-749300Y-3378200D03*
D15*
G01*
X-1003300Y-3378200D03*
G01*
X-1257300Y-3378200D03*
G01*
X-1511300Y-3378200D03*
G01*
X-1765300Y-3378200D03*
M02*
